<svg width="17" height="17" viewBox="0 0 17 17" fill="none" xmlns="http://www.w3.org/2000/svg">
<path d="M0.625 1.5C0.625 1.26794 0.717187 1.04538 0.881282 0.881282C1.04538 0.717187 1.26794 0.625 1.5 0.625H4.125C4.35706 0.625 4.57962 0.717187 4.74372 0.881282C4.90781 1.04538 5 1.26794 5 1.5V4.125C5 4.35706 4.90781 4.57962 4.74372 4.74372C4.57962 4.90781 4.35706 5 4.125 5H1.5C1.26794 5 1.04538 4.90781 0.881282 4.74372C0.717187 4.57962 0.625 4.35706 0.625 4.125V1.5ZM0.625 7.1875C0.625 6.95544 0.717187 6.73288 0.881282 6.56878C1.04538 6.40469 1.26794 6.3125 1.5 6.3125H4.125C4.35706 6.3125 4.57962 6.40469 4.74372 6.56878C4.90781 6.73288 5 6.95544 5 7.1875V9.8125C5 10.0446 4.90781 10.2671 4.74372 10.4312C4.57962 10.5953 4.35706 10.6875 4.125 10.6875H1.5C1.26794 10.6875 1.04538 10.5953 0.881282 10.4312C0.717187 10.2671 0.625 10.0446 0.625 9.8125V7.1875ZM0.625 12.875C0.625 12.6429 0.717187 12.4204 0.881282 12.2563C1.04538 12.0922 1.26794 12 1.5 12H4.125C4.35706 12 4.57962 12.0922 4.74372 12.2563C4.90781 12.4204 5 12.6429 5 12.875V15.5C5 15.7321 4.90781 15.9546 4.74372 16.1187C4.57962 16.2828 4.35706 16.375 4.125 16.375H1.5C1.26794 16.375 1.04538 16.2828 0.881282 16.1187C0.717187 15.9546 0.625 15.7321 0.625 15.5V12.875ZM6.3125 1.5C6.3125 1.26794 6.40469 1.04538 6.56878 0.881282C6.73288 0.717187 6.95544 0.625 7.1875 0.625H9.8125C10.0446 0.625 10.2671 0.717187 10.4312 0.881282C10.5953 1.04538 10.6875 1.26794 10.6875 1.5V4.125C10.6875 4.35706 10.5953 4.57962 10.4312 4.74372C10.2671 4.90781 10.0446 5 9.8125 5H7.1875C6.95544 5 6.73288 4.90781 6.56878 4.74372C6.40469 4.57962 6.3125 4.35706 6.3125 4.125V1.5ZM6.3125 7.1875C6.3125 6.95544 6.40469 6.73288 6.56878 6.56878C6.73288 6.40469 6.95544 6.3125 7.1875 6.3125H9.8125C10.0446 6.3125 10.2671 6.40469 10.4312 6.56878C10.5953 6.73288 10.6875 6.95544 10.6875 7.1875V9.8125C10.6875 10.0446 10.5953 10.2671 10.4312 10.4312C10.2671 10.5953 10.0446 10.6875 9.8125 10.6875H7.1875C6.95544 10.6875 6.73288 10.5953 6.56878 10.4312C6.40469 10.2671 6.3125 10.0446 6.3125 9.8125V7.1875ZM6.3125 12.875C6.3125 12.6429 6.40469 12.4204 6.56878 12.2563C6.73288 12.0922 6.95544 12 7.1875 12H9.8125C10.0446 12 10.2671 12.0922 10.4312 12.2563C10.5953 12.4204 10.6875 12.6429 10.6875 12.875V15.5C10.6875 15.7321 10.5953 15.9546 10.4312 16.1187C10.2671 16.2828 10.0446 16.375 9.8125 16.375H7.1875C6.95544 16.375 6.73288 16.2828 6.56878 16.1187C6.40469 15.9546 6.3125 15.7321 6.3125 15.5V12.875ZM12 1.5C12 1.26794 12.0922 1.04538 12.2563 0.881282C12.4204 0.717187 12.6429 0.625 12.875 0.625H15.5C15.7321 0.625 15.9546 0.717187 16.1187 0.881282C16.2828 1.04538 16.375 1.26794 16.375 1.5V4.125C16.375 4.35706 16.2828 4.57962 16.1187 4.74372C15.9546 4.90781 15.7321 5 15.5 5H12.875C12.6429 5 12.4204 4.90781 12.2563 4.74372C12.0922 4.57962 12 4.35706 12 4.125V1.5ZM12 7.1875C12 6.95544 12.0922 6.73288 12.2563 6.56878C12.4204 6.40469 12.6429 6.3125 12.875 6.3125H15.5C15.7321 6.3125 15.9546 6.40469 16.1187 6.56878C16.2828 6.73288 16.375 6.95544 16.375 7.1875V9.8125C16.375 10.0446 16.2828 10.2671 16.1187 10.4312C15.9546 10.5953 15.7321 10.6875 15.5 10.6875H12.875C12.6429 10.6875 12.4204 10.5953 12.2563 10.4312C12.0922 10.2671 12 10.0446 12 9.8125V7.1875ZM12 12.875C12 12.6429 12.0922 12.4204 12.2563 12.2563C12.4204 12.0922 12.6429 12 12.875 12H15.5C15.7321 12 15.9546 12.0922 16.1187 12.2563C16.2828 12.4204 16.375 12.6429 16.375 12.875V15.5C16.375 15.7321 16.2828 15.9546 16.1187 16.1187C15.9546 16.2828 15.7321 16.375 15.5 16.375H12.875C12.6429 16.375 12.4204 16.2828 12.2563 16.1187C12.0922 15.9546 12 15.7321 12 15.5V12.875Z" fill="white"/>
</svg>
